<mxfile host="app.diagrams.net" agent="Mozilla/5.0 (Windows NT 10.0; Win64; x64) AppleWebKit/537.36 (KHTML, like Gecko) Chrome/130.0.0.0 Safari/537.36" version="24.7.16">
  <diagram name="Page-1" id="13e1069c-82ec-6db2-03f1-153e76fe0fe0">
    <mxGraphModel dx="1812" dy="532" grid="1" gridSize="10" guides="1" tooltips="1" connect="1" arrows="1" fold="1" page="1" pageScale="1" pageWidth="1100" pageHeight="850" background="none" math="0" shadow="0">
      <root>
        <mxCell id="0" />
        <mxCell id="1" parent="0" />
        <mxCell id="7baba1c4bc27f4b0-2" value="RPA Interface" style="shape=umlLifeline;perimeter=lifelinePerimeter;whiteSpace=wrap;html=1;container=1;collapsible=0;recursiveResize=0;outlineConnect=0;rounded=1;shadow=0;comic=0;labelBackgroundColor=none;strokeWidth=1;fontFamily=Verdana;fontSize=12;align=center;" parent="1" vertex="1">
          <mxGeometry x="240" y="190" width="100" height="280" as="geometry" />
        </mxCell>
        <mxCell id="7baba1c4bc27f4b0-16" value="" style="html=1;points=[];perimeter=orthogonalPerimeter;rounded=0;shadow=0;comic=0;labelBackgroundColor=none;strokeWidth=1;fontFamily=Verdana;fontSize=12;align=center;" parent="7baba1c4bc27f4b0-2" vertex="1">
          <mxGeometry x="45" y="120" width="10" height="30" as="geometry" />
        </mxCell>
        <mxCell id="xaBManakFxA81nTwkJq_-1" value="" style="html=1;points=[];perimeter=orthogonalPerimeter;rounded=0;shadow=0;comic=0;labelBackgroundColor=none;strokeWidth=1;fontFamily=Verdana;fontSize=12;align=center;" vertex="1" parent="7baba1c4bc27f4b0-2">
          <mxGeometry x="45" y="80" width="10" height="30" as="geometry" />
        </mxCell>
        <mxCell id="7baba1c4bc27f4b0-3" value="File System" style="shape=umlLifeline;perimeter=lifelinePerimeter;whiteSpace=wrap;html=1;container=1;collapsible=0;recursiveResize=0;outlineConnect=0;rounded=1;shadow=0;comic=0;labelBackgroundColor=none;strokeWidth=1;fontFamily=Verdana;fontSize=12;align=center;" parent="1" vertex="1">
          <mxGeometry x="370" y="190" width="100" height="280" as="geometry" />
        </mxCell>
        <mxCell id="y_yRbqdmOVOouyvcq43K-6" value="" style="html=1;points=[];perimeter=orthogonalPerimeter;rounded=0;shadow=0;comic=0;labelBackgroundColor=none;strokeWidth=1;fontFamily=Verdana;fontSize=12;align=center;" parent="7baba1c4bc27f4b0-3" vertex="1">
          <mxGeometry x="45" y="260" width="10" height="20" as="geometry" />
        </mxCell>
        <mxCell id="7baba1c4bc27f4b0-8" value="Orchestrator" style="shape=umlLifeline;perimeter=lifelinePerimeter;whiteSpace=wrap;html=1;container=1;collapsible=0;recursiveResize=0;outlineConnect=0;rounded=1;shadow=0;comic=0;labelBackgroundColor=none;strokeWidth=1;fontFamily=Verdana;fontSize=12;align=center;" parent="1" vertex="1">
          <mxGeometry x="110" y="190" width="100" height="280" as="geometry" />
        </mxCell>
        <mxCell id="7baba1c4bc27f4b0-9" value="" style="html=1;points=[];perimeter=orthogonalPerimeter;rounded=0;shadow=0;comic=0;labelBackgroundColor=none;strokeWidth=1;fontFamily=Verdana;fontSize=12;align=center;" parent="7baba1c4bc27f4b0-8" vertex="1">
          <mxGeometry x="45" y="70" width="10" height="190" as="geometry" />
        </mxCell>
        <mxCell id="y_yRbqdmOVOouyvcq43K-2" value="" style="html=1;points=[];perimeter=orthogonalPerimeter;rounded=0;shadow=0;comic=0;labelBackgroundColor=none;strokeWidth=1;fontFamily=Verdana;fontSize=12;align=center;" parent="7baba1c4bc27f4b0-8" vertex="1">
          <mxGeometry x="50" y="160" width="10" height="50" as="geometry" />
        </mxCell>
        <mxCell id="y_yRbqdmOVOouyvcq43K-3" style="edgeStyle=orthogonalEdgeStyle;rounded=0;orthogonalLoop=1;jettySize=auto;html=1;entryX=1.2;entryY=0.88;entryDx=0;entryDy=0;entryPerimeter=0;exitX=0.986;exitY=0.089;exitDx=0;exitDy=0;exitPerimeter=0;" parent="7baba1c4bc27f4b0-8" source="y_yRbqdmOVOouyvcq43K-2" target="y_yRbqdmOVOouyvcq43K-2" edge="1">
          <mxGeometry relative="1" as="geometry">
            <mxPoint x="110" y="220" as="targetPoint" />
            <Array as="points">
              <mxPoint x="120" y="164" />
              <mxPoint x="120" y="204" />
            </Array>
          </mxGeometry>
        </mxCell>
        <mxCell id="y_yRbqdmOVOouyvcq43K-4" value="formatLog()" style="edgeLabel;html=1;align=center;verticalAlign=middle;resizable=0;points=[];" parent="y_yRbqdmOVOouyvcq43K-3" vertex="1" connectable="0">
          <mxGeometry x="-0.0422" y="-2" relative="1" as="geometry">
            <mxPoint x="2" y="3" as="offset" />
          </mxGeometry>
        </mxCell>
        <mxCell id="Gyf3qqBFA28l09se3BNo-3" value="" style="html=1;points=[];perimeter=orthogonalPerimeter;rounded=0;shadow=0;comic=0;labelBackgroundColor=none;strokeWidth=1;fontFamily=Verdana;fontSize=12;align=center;" parent="7baba1c4bc27f4b0-8" vertex="1">
          <mxGeometry x="50" y="210" width="10" height="50" as="geometry" />
        </mxCell>
        <mxCell id="Gyf3qqBFA28l09se3BNo-1" style="edgeStyle=orthogonalEdgeStyle;rounded=0;orthogonalLoop=1;jettySize=auto;html=1;entryX=1.022;entryY=0.604;entryDx=0;entryDy=0;entryPerimeter=0;exitX=1.14;exitY=0.176;exitDx=0;exitDy=0;exitPerimeter=0;" parent="7baba1c4bc27f4b0-8" source="Gyf3qqBFA28l09se3BNo-3" target="Gyf3qqBFA28l09se3BNo-3" edge="1">
          <mxGeometry relative="1" as="geometry">
            <mxPoint x="-199.38" y="241.69999999999993" as="targetPoint" />
            <Array as="points">
              <mxPoint x="120" y="219" />
              <mxPoint x="120" y="240" />
            </Array>
            <mxPoint x="110" y="220" as="sourcePoint" />
          </mxGeometry>
        </mxCell>
        <mxCell id="Gyf3qqBFA28l09se3BNo-2" value="saveLog()" style="edgeLabel;html=1;align=center;verticalAlign=middle;resizable=0;points=[];" parent="Gyf3qqBFA28l09se3BNo-1" vertex="1" connectable="0">
          <mxGeometry x="-0.0422" y="-2" relative="1" as="geometry">
            <mxPoint x="2" as="offset" />
          </mxGeometry>
        </mxCell>
        <mxCell id="xaBManakFxA81nTwkJq_-2" value="getRanProcesses()" style="html=1;verticalAlign=bottom;endArrow=block;labelBackgroundColor=none;fontFamily=Verdana;fontSize=12;entryX=0.4;entryY=0;entryDx=0;entryDy=0;entryPerimeter=0;exitX=1.08;exitY=0.213;exitDx=0;exitDy=0;exitPerimeter=0;" edge="1" parent="7baba1c4bc27f4b0-8">
          <mxGeometry relative="1" as="geometry">
            <mxPoint x="55" y="80" as="sourcePoint" />
            <mxPoint x="178" y="80" as="targetPoint" />
          </mxGeometry>
        </mxCell>
        <mxCell id="-GXyb9-w-mGx2s9eT3YJ-1" value="Export Request" style="shape=umlLifeline;perimeter=lifelinePerimeter;whiteSpace=wrap;html=1;container=1;collapsible=0;recursiveResize=0;outlineConnect=0;rounded=1;shadow=0;comic=0;labelBackgroundColor=none;strokeWidth=1;fontFamily=Verdana;fontSize=12;align=center;" parent="1" vertex="1">
          <mxGeometry x="-20" y="190" width="100" height="280" as="geometry" />
        </mxCell>
        <mxCell id="-GXyb9-w-mGx2s9eT3YJ-2" value="" style="html=1;points=[];perimeter=orthogonalPerimeter;rounded=0;shadow=0;comic=0;labelBackgroundColor=none;strokeWidth=1;fontFamily=Verdana;fontSize=12;align=center;" parent="-GXyb9-w-mGx2s9eT3YJ-1" vertex="1">
          <mxGeometry x="45" y="63" width="10" height="10" as="geometry" />
        </mxCell>
        <mxCell id="3tEDgcXUxdF12Kr2QDru-1" style="edgeStyle=orthogonalEdgeStyle;rounded=0;orthogonalLoop=1;jettySize=auto;html=1;entryX=-0.039;entryY=0.011;entryDx=0;entryDy=0;entryPerimeter=0;exitX=1.038;exitY=0.848;exitDx=0;exitDy=0;exitPerimeter=0;" parent="1" source="-GXyb9-w-mGx2s9eT3YJ-2" target="7baba1c4bc27f4b0-9" edge="1">
          <mxGeometry relative="1" as="geometry">
            <mxPoint x="280" y="272" as="sourcePoint" />
            <mxPoint x="170" y="275" as="targetPoint" />
          </mxGeometry>
        </mxCell>
        <mxCell id="3tEDgcXUxdF12Kr2QDru-2" value="requestSessionLogs()" style="edgeLabel;html=1;align=center;verticalAlign=middle;resizable=0;points=[];" parent="3tEDgcXUxdF12Kr2QDru-1" vertex="1" connectable="0">
          <mxGeometry x="0.3615" y="-2" relative="1" as="geometry">
            <mxPoint x="-16" y="-14" as="offset" />
          </mxGeometry>
        </mxCell>
        <mxCell id="56NzPOEbL97k_swbkCt9-2" value="getSessionLog(processName)" style="html=1;verticalAlign=bottom;endArrow=block;labelBackgroundColor=none;fontFamily=Verdana;fontSize=12;entryX=0.4;entryY=0;entryDx=0;entryDy=0;entryPerimeter=0;" parent="1" target="7baba1c4bc27f4b0-16" edge="1">
          <mxGeometry relative="1" as="geometry">
            <mxPoint x="166" y="310" as="sourcePoint" />
            <mxPoint x="450" y="510" as="targetPoint" />
          </mxGeometry>
        </mxCell>
        <mxCell id="y_yRbqdmOVOouyvcq43K-7" value="saveFile()" style="html=1;verticalAlign=bottom;endArrow=block;labelBackgroundColor=none;fontFamily=Verdana;fontSize=12;exitX=1.167;exitY=1.003;exitDx=0;exitDy=0;exitPerimeter=0;" parent="1" source="Gyf3qqBFA28l09se3BNo-3" target="7baba1c4bc27f4b0-3" edge="1">
          <mxGeometry relative="1" as="geometry">
            <mxPoint x="162.5" y="570" as="sourcePoint" />
            <mxPoint x="417.5" y="570" as="targetPoint" />
          </mxGeometry>
        </mxCell>
        <mxCell id="xaBManakFxA81nTwkJq_-3" style="edgeStyle=orthogonalEdgeStyle;rounded=0;orthogonalLoop=1;jettySize=auto;html=1;dashed=1;exitX=-0.355;exitY=0.961;exitDx=0;exitDy=0;exitPerimeter=0;" edge="1" parent="1">
          <mxGeometry relative="1" as="geometry">
            <mxPoint x="281" y="290" as="sourcePoint" />
            <mxPoint x="170" y="290" as="targetPoint" />
          </mxGeometry>
        </mxCell>
        <mxCell id="xaBManakFxA81nTwkJq_-4" value="processLog" style="edgeLabel;html=1;align=center;verticalAlign=middle;resizable=0;points=[];" vertex="1" connectable="0" parent="xaBManakFxA81nTwkJq_-3">
          <mxGeometry x="0.0818" y="3" relative="1" as="geometry">
            <mxPoint y="-13" as="offset" />
          </mxGeometry>
        </mxCell>
        <mxCell id="56NzPOEbL97k_swbkCt9-3" style="edgeStyle=orthogonalEdgeStyle;rounded=0;orthogonalLoop=1;jettySize=auto;html=1;dashed=1;exitX=-0.355;exitY=0.961;exitDx=0;exitDy=0;exitPerimeter=0;entryX=1.231;entryY=0.412;entryDx=0;entryDy=0;entryPerimeter=0;" parent="1" source="7baba1c4bc27f4b0-16" edge="1" target="7baba1c4bc27f4b0-9">
          <mxGeometry relative="1" as="geometry">
            <mxPoint x="290" y="450" as="sourcePoint" />
            <mxPoint x="170" y="329" as="targetPoint" />
          </mxGeometry>
        </mxCell>
        <mxCell id="56NzPOEbL97k_swbkCt9-12" value="sessionLog" style="edgeLabel;html=1;align=center;verticalAlign=middle;resizable=0;points=[];" parent="56NzPOEbL97k_swbkCt9-3" vertex="1" connectable="0">
          <mxGeometry x="0.0818" y="3" relative="1" as="geometry">
            <mxPoint y="-13" as="offset" />
          </mxGeometry>
        </mxCell>
      </root>
    </mxGraphModel>
  </diagram>
</mxfile>
